<svg width="34" height="34" viewBox="0 0 34 34" fill="none" xmlns="http://www.w3.org/2000/svg">
<path d="M33.6667 17C33.6667 14.8113 33.2356 12.644 32.398 10.6219C31.5604 8.59983 30.3328 6.76251 28.7851 5.21487C27.2375 3.66722 25.4001 2.43957 23.3781 1.60199C21.356 0.764409 19.1887 0.333313 17 0.333313C12.5797 0.333313 8.34049 2.08926 5.21488 5.21487C2.08928 8.34047 0.333328 12.5797 0.333328 17C0.333328 21.4203 2.08928 25.6595 5.21488 28.7851C8.34049 31.9107 12.5797 33.6666 17 33.6666C21.4203 33.6666 25.6595 31.9107 28.7851 28.7851C31.9107 25.6595 33.6667 21.4203 33.6667 17ZM30.2167 15.3333H25.3333C25.0584 11.4136 23.7154 7.6439 21.45 4.43331C23.7774 5.25992 25.8295 6.71676 27.3775 8.64139C28.9254 10.566 29.9083 12.8828 30.2167 15.3333ZM12.1333 18.6666H22C21.5735 22.7843 19.8184 26.6513 17 29.6833C14.1834 26.6639 12.4686 22.7821 12.1333 18.6666ZM12.1333 15.3333C12.5215 11.2364 14.2293 7.37617 17 4.33331C19.8412 7.34352 21.6002 11.2134 22 15.3333H12.1333ZM12.7333 4.38331C10.4559 7.61168 9.09133 11.3945 8.78333 15.3333H3.78333C4.09817 12.8525 5.10434 10.5102 6.68694 8.57393C8.26954 6.63768 10.3648 5.18553 12.7333 4.38331ZM3.78333 18.6666H8.78333C9.05781 22.6021 10.4131 26.3854 12.7 29.6C10.34 28.7938 8.2533 27.342 6.67711 25.4093C5.10091 23.4766 4.09835 21.1406 3.78333 18.6666ZM21.3667 29.5833C23.6473 26.3678 25.0178 22.5962 25.3333 18.6666H30.25C29.9348 21.1337 28.9359 23.4635 27.3661 25.3926C25.7963 27.3217 23.7182 28.7733 21.3667 29.5833Z" fill="#F25822"/>
</svg>
