<svg width="34" height="28" viewBox="0 0 34 28" fill="none" xmlns="http://www.w3.org/2000/svg">
<path d="M28.6667 0.666687H5.33334C4.00725 0.666687 2.73548 1.19347 1.7978 2.13115C0.86012 3.06884 0.333336 4.3406 0.333336 5.66669V22.3334C0.333336 23.6594 0.86012 24.9312 1.7978 25.8689C2.73548 26.8066 4.00725 27.3334 5.33334 27.3334H28.6667C29.9928 27.3334 31.2645 26.8066 32.2022 25.8689C33.1399 24.9312 33.6667 23.6594 33.6667 22.3334V5.66669C33.6667 4.3406 33.1399 3.06884 32.2022 2.13115C31.2645 1.19347 29.9928 0.666687 28.6667 0.666687ZM27.55 4.00002L17 11.9167L6.45 4.00002H27.55ZM28.6667 24H5.33334C4.89131 24 4.46739 23.8244 4.15482 23.5119C3.84226 23.1993 3.66667 22.7754 3.66667 22.3334V6.08335L16 15.3334C16.2885 15.5497 16.6394 15.6667 17 15.6667C17.3606 15.6667 17.7115 15.5497 18 15.3334L30.3333 6.08335V22.3334C30.3333 22.7754 30.1577 23.1993 29.8452 23.5119C29.5326 23.8244 29.1087 24 28.6667 24Z" fill="#149211"/>
</svg>
